<mxfile host="www.draw.io" modified="2020-02-15T06:26:05.347Z" agent="Mozilla/5.0 (Windows NT 10.0; Win64; x64) AppleWebKit/537.36 (KHTML, like Gecko) Chrome/80.0.3987.100 Safari/537.36" etag="uvTMDJWpqBOrshvxfe1Q" version="12.7.0" type="github" pages="3">
  <diagram id="gWpXzZqUN_xeHMJXShuu" name="Calendar View">
    <mxGraphModel dx="1221" dy="682" grid="1" gridSize="10" guides="1" tooltips="1" connect="1" arrows="1" fold="1" page="1" pageScale="1" pageWidth="850" pageHeight="1100" math="0" shadow="1">
      <root>
        <mxCell id="0FbnTfogBeN0D6H0uJNu-0"/>
        <mxCell id="0FbnTfogBeN0D6H0uJNu-1" parent="0FbnTfogBeN0D6H0uJNu-0"/>
        <mxCell id="wYGH1agN9tKTNIJL4NUy-10" value="" style="rounded=0;whiteSpace=wrap;html=1;" parent="0FbnTfogBeN0D6H0uJNu-1" vertex="1">
          <mxGeometry x="130" y="120" width="960" height="680" as="geometry"/>
        </mxCell>
        <mxCell id="86lQQZ_HFtQmhh7WeCAh-0" value="" style="rounded=0;whiteSpace=wrap;html=1;" parent="0FbnTfogBeN0D6H0uJNu-1" vertex="1">
          <mxGeometry x="191.8" y="270" width="720" height="260" as="geometry"/>
        </mxCell>
        <mxCell id="86lQQZ_HFtQmhh7WeCAh-1" value="" style="rounded=0;whiteSpace=wrap;html=1;" parent="0FbnTfogBeN0D6H0uJNu-1" vertex="1">
          <mxGeometry x="191.8" y="240" width="840" height="60" as="geometry"/>
        </mxCell>
        <mxCell id="86lQQZ_HFtQmhh7WeCAh-2" value="" style="rounded=0;whiteSpace=wrap;html=1;" parent="0FbnTfogBeN0D6H0uJNu-1" vertex="1">
          <mxGeometry x="191.8" y="280" width="120" height="480" as="geometry"/>
        </mxCell>
        <mxCell id="86lQQZ_HFtQmhh7WeCAh-3" value="" style="rounded=0;whiteSpace=wrap;html=1;" parent="0FbnTfogBeN0D6H0uJNu-1" vertex="1">
          <mxGeometry x="311.8" y="280" width="120" height="480" as="geometry"/>
        </mxCell>
        <mxCell id="86lQQZ_HFtQmhh7WeCAh-4" value="" style="rounded=0;whiteSpace=wrap;html=1;" parent="0FbnTfogBeN0D6H0uJNu-1" vertex="1">
          <mxGeometry x="431.8" y="280" width="120" height="480" as="geometry"/>
        </mxCell>
        <mxCell id="86lQQZ_HFtQmhh7WeCAh-5" value="" style="rounded=0;whiteSpace=wrap;html=1;" parent="0FbnTfogBeN0D6H0uJNu-1" vertex="1">
          <mxGeometry x="551.8" y="280" width="120" height="480" as="geometry"/>
        </mxCell>
        <mxCell id="86lQQZ_HFtQmhh7WeCAh-6" value="" style="rounded=0;whiteSpace=wrap;html=1;" parent="0FbnTfogBeN0D6H0uJNu-1" vertex="1">
          <mxGeometry x="671.8" y="280" width="120" height="480" as="geometry"/>
        </mxCell>
        <mxCell id="86lQQZ_HFtQmhh7WeCAh-7" value="" style="rounded=0;whiteSpace=wrap;html=1;" parent="0FbnTfogBeN0D6H0uJNu-1" vertex="1">
          <mxGeometry x="791.8" y="280" width="120" height="480" as="geometry"/>
        </mxCell>
        <mxCell id="86lQQZ_HFtQmhh7WeCAh-8" value="" style="rounded=0;whiteSpace=wrap;html=1;" parent="0FbnTfogBeN0D6H0uJNu-1" vertex="1">
          <mxGeometry x="911.8" y="280" width="120" height="480" as="geometry"/>
        </mxCell>
        <mxCell id="86lQQZ_HFtQmhh7WeCAh-11" value="Sunday" style="text;html=1;strokeColor=none;fillColor=none;align=center;verticalAlign=middle;whiteSpace=wrap;rounded=0;" parent="0FbnTfogBeN0D6H0uJNu-1" vertex="1">
          <mxGeometry x="231.8" y="280" width="40" height="20" as="geometry"/>
        </mxCell>
        <mxCell id="86lQQZ_HFtQmhh7WeCAh-12" value="Monday" style="text;html=1;strokeColor=none;fillColor=none;align=center;verticalAlign=middle;whiteSpace=wrap;rounded=0;" parent="0FbnTfogBeN0D6H0uJNu-1" vertex="1">
          <mxGeometry x="351.8" y="280" width="40" height="20" as="geometry"/>
        </mxCell>
        <mxCell id="86lQQZ_HFtQmhh7WeCAh-13" value="Tuesday" style="text;html=1;strokeColor=none;fillColor=none;align=center;verticalAlign=middle;whiteSpace=wrap;rounded=0;" parent="0FbnTfogBeN0D6H0uJNu-1" vertex="1">
          <mxGeometry x="471.8" y="280" width="40" height="20" as="geometry"/>
        </mxCell>
        <mxCell id="86lQQZ_HFtQmhh7WeCAh-14" value="Wednesday" style="text;html=1;strokeColor=none;fillColor=none;align=center;verticalAlign=middle;whiteSpace=wrap;rounded=0;" parent="0FbnTfogBeN0D6H0uJNu-1" vertex="1">
          <mxGeometry x="591.8" y="280" width="40" height="20" as="geometry"/>
        </mxCell>
        <mxCell id="86lQQZ_HFtQmhh7WeCAh-15" value="Thursday" style="text;html=1;strokeColor=none;fillColor=none;align=center;verticalAlign=middle;whiteSpace=wrap;rounded=0;" parent="0FbnTfogBeN0D6H0uJNu-1" vertex="1">
          <mxGeometry x="711.8" y="280" width="40" height="20" as="geometry"/>
        </mxCell>
        <mxCell id="86lQQZ_HFtQmhh7WeCAh-16" value="Friday" style="text;html=1;strokeColor=none;fillColor=none;align=center;verticalAlign=middle;whiteSpace=wrap;rounded=0;" parent="0FbnTfogBeN0D6H0uJNu-1" vertex="1">
          <mxGeometry x="831.8" y="280" width="40" height="20" as="geometry"/>
        </mxCell>
        <mxCell id="86lQQZ_HFtQmhh7WeCAh-17" value="Saturday" style="text;html=1;strokeColor=none;fillColor=none;align=center;verticalAlign=middle;whiteSpace=wrap;rounded=0;" parent="0FbnTfogBeN0D6H0uJNu-1" vertex="1">
          <mxGeometry x="951.8" y="280" width="40" height="20" as="geometry"/>
        </mxCell>
        <mxCell id="86lQQZ_HFtQmhh7WeCAh-53" value="" style="endArrow=none;html=1;entryX=1.008;entryY=0.043;entryDx=0;entryDy=0;entryPerimeter=0;" parent="0FbnTfogBeN0D6H0uJNu-1" edge="1">
          <mxGeometry width="50" height="50" relative="1" as="geometry">
            <mxPoint x="190" y="460" as="sourcePoint"/>
            <mxPoint x="1031.7999999999995" y="460" as="targetPoint"/>
          </mxGeometry>
        </mxCell>
        <mxCell id="86lQQZ_HFtQmhh7WeCAh-58" value="" style="endArrow=none;html=1;entryX=1.008;entryY=0.043;entryDx=0;entryDy=0;entryPerimeter=0;exitX=1;exitY=0;exitDx=0;exitDy=0;" parent="0FbnTfogBeN0D6H0uJNu-1" source="86lQQZ_HFtQmhh7WeCAh-92" edge="1">
          <mxGeometry width="50" height="50" relative="1" as="geometry">
            <mxPoint x="190" y="560" as="sourcePoint"/>
            <mxPoint x="1031.7999999999995" y="560" as="targetPoint"/>
          </mxGeometry>
        </mxCell>
        <mxCell id="86lQQZ_HFtQmhh7WeCAh-62" value="" style="endArrow=none;html=1;exitX=-0.043;exitY=0.782;exitDx=0;exitDy=0;entryX=1;entryY=0;entryDx=0;entryDy=0;exitPerimeter=0;" parent="0FbnTfogBeN0D6H0uJNu-1" source="86lQQZ_HFtQmhh7WeCAh-2" target="86lQQZ_HFtQmhh7WeCAh-118" edge="1">
          <mxGeometry width="50" height="50" relative="1" as="geometry">
            <mxPoint x="70.00000000000007" y="639.9999999999999" as="sourcePoint"/>
            <mxPoint x="1031.7999999999995" y="640" as="targetPoint"/>
          </mxGeometry>
        </mxCell>
        <mxCell id="86lQQZ_HFtQmhh7WeCAh-70" value="" style="endArrow=none;html=1;entryX=1.008;entryY=0.043;entryDx=0;entryDy=0;entryPerimeter=0;" parent="0FbnTfogBeN0D6H0uJNu-1" edge="1">
          <mxGeometry width="50" height="50" relative="1" as="geometry">
            <mxPoint x="790" y="380" as="sourcePoint"/>
            <mxPoint x="1031.7999999999995" y="380" as="targetPoint"/>
          </mxGeometry>
        </mxCell>
        <mxCell id="86lQQZ_HFtQmhh7WeCAh-72" value="&lt;span style=&quot;white-space: normal&quot;&gt;9:00 AM - 1:00 PM&lt;/span&gt;&lt;br style=&quot;white-space: normal&quot;&gt;&lt;span style=&quot;white-space: normal&quot;&gt;John Client&lt;/span&gt;" style="rounded=0;whiteSpace=wrap;html=1;fillColor=#FFFFFF;strokeColor=#6c8ebf;" parent="0FbnTfogBeN0D6H0uJNu-1" vertex="1">
          <mxGeometry x="311.8" y="395" width="120" height="40" as="geometry"/>
        </mxCell>
        <mxCell id="86lQQZ_HFtQmhh7WeCAh-75" value="&lt;span style=&quot;white-space: normal&quot;&gt;3:30 PM - 6:30 PM&lt;br&gt;Jimothy Kid&lt;/span&gt;" style="rounded=0;whiteSpace=wrap;html=1;fillColor=#d5e8d4;strokeColor=#82b366;" parent="0FbnTfogBeN0D6H0uJNu-1" vertex="1">
          <mxGeometry x="791.8" y="474" width="119.1" height="36" as="geometry"/>
        </mxCell>
        <mxCell id="86lQQZ_HFtQmhh7WeCAh-80" value="" style="endArrow=none;html=1;" parent="0FbnTfogBeN0D6H0uJNu-1" edge="1">
          <mxGeometry width="50" height="50" relative="1" as="geometry">
            <mxPoint x="190" y="280" as="sourcePoint"/>
            <mxPoint x="1030" y="280" as="targetPoint"/>
          </mxGeometry>
        </mxCell>
        <mxCell id="86lQQZ_HFtQmhh7WeCAh-81" value="" style="endArrow=none;html=1;entryX=0.999;entryY=0.076;entryDx=0;entryDy=0;entryPerimeter=0;" parent="0FbnTfogBeN0D6H0uJNu-1" edge="1">
          <mxGeometry width="50" height="50" relative="1" as="geometry">
            <mxPoint x="190" y="300" as="sourcePoint"/>
            <mxPoint x="1032.52" y="300" as="targetPoint"/>
          </mxGeometry>
        </mxCell>
        <mxCell id="86lQQZ_HFtQmhh7WeCAh-83" value="February 2020" style="text;html=1;strokeColor=none;fillColor=none;align=center;verticalAlign=middle;whiteSpace=wrap;rounded=0;fontStyle=1;fontSize=20;" parent="0FbnTfogBeN0D6H0uJNu-1" vertex="1">
          <mxGeometry x="431.79999999999995" y="250" width="358.2" height="20" as="geometry"/>
        </mxCell>
        <mxCell id="86lQQZ_HFtQmhh7WeCAh-86" value="&lt;b style=&quot;font-size: 14px&quot;&gt;1&lt;/b&gt;" style="text;html=1;strokeColor=none;fillColor=none;align=left;verticalAlign=middle;whiteSpace=wrap;rounded=0;" parent="0FbnTfogBeN0D6H0uJNu-1" vertex="1">
          <mxGeometry x="911.8" y="300" width="118.2" height="14" as="geometry"/>
        </mxCell>
        <mxCell id="86lQQZ_HFtQmhh7WeCAh-87" value="&lt;b style=&quot;font-size: 14px&quot;&gt;2&lt;/b&gt;" style="text;html=1;strokeColor=none;fillColor=none;align=left;verticalAlign=middle;whiteSpace=wrap;rounded=0;" parent="0FbnTfogBeN0D6H0uJNu-1" vertex="1">
          <mxGeometry x="191.79999999999995" y="380" width="118.2" height="14" as="geometry"/>
        </mxCell>
        <mxCell id="86lQQZ_HFtQmhh7WeCAh-88" value="&lt;b style=&quot;font-size: 14px&quot;&gt;3&lt;/b&gt;" style="text;html=1;strokeColor=none;fillColor=none;align=left;verticalAlign=middle;whiteSpace=wrap;rounded=0;" parent="0FbnTfogBeN0D6H0uJNu-1" vertex="1">
          <mxGeometry x="311.79999999999995" y="380" width="118.2" height="14" as="geometry"/>
        </mxCell>
        <mxCell id="86lQQZ_HFtQmhh7WeCAh-89" value="" style="endArrow=none;html=1;entryX=1.008;entryY=0.043;entryDx=0;entryDy=0;entryPerimeter=0;" parent="0FbnTfogBeN0D6H0uJNu-1" target="86lQQZ_HFtQmhh7WeCAh-88" edge="1">
          <mxGeometry width="50" height="50" relative="1" as="geometry">
            <mxPoint x="190" y="380" as="sourcePoint"/>
            <mxPoint x="1031.7999999999993" y="380" as="targetPoint"/>
          </mxGeometry>
        </mxCell>
        <mxCell id="86lQQZ_HFtQmhh7WeCAh-90" value="&lt;b style=&quot;font-size: 14px&quot;&gt;21&lt;/b&gt;" style="text;html=1;strokeColor=none;fillColor=none;align=left;verticalAlign=middle;whiteSpace=wrap;rounded=0;" parent="0FbnTfogBeN0D6H0uJNu-1" vertex="1">
          <mxGeometry x="791.8" y="560" width="118.2" height="14" as="geometry"/>
        </mxCell>
        <mxCell id="86lQQZ_HFtQmhh7WeCAh-91" value="&lt;b style=&quot;font-size: 14px&quot;&gt;20&lt;/b&gt;" style="text;html=1;strokeColor=none;fillColor=none;align=left;verticalAlign=middle;whiteSpace=wrap;rounded=0;" parent="0FbnTfogBeN0D6H0uJNu-1" vertex="1">
          <mxGeometry x="671.8" y="560" width="118.2" height="14" as="geometry"/>
        </mxCell>
        <mxCell id="86lQQZ_HFtQmhh7WeCAh-94" value="&lt;b style=&quot;font-size: 14px&quot;&gt;15&lt;/b&gt;" style="text;html=1;strokeColor=none;fillColor=none;align=left;verticalAlign=middle;whiteSpace=wrap;rounded=0;" parent="0FbnTfogBeN0D6H0uJNu-1" vertex="1">
          <mxGeometry x="911.8" y="460" width="118.2" height="14" as="geometry"/>
        </mxCell>
        <mxCell id="86lQQZ_HFtQmhh7WeCAh-96" value="&lt;b style=&quot;font-size: 14px&quot;&gt;16&lt;/b&gt;" style="text;html=1;strokeColor=none;fillColor=none;align=left;verticalAlign=middle;whiteSpace=wrap;rounded=0;" parent="0FbnTfogBeN0D6H0uJNu-1" vertex="1">
          <mxGeometry x="191.79999999999995" y="560" width="118.2" height="14" as="geometry"/>
        </mxCell>
        <mxCell id="86lQQZ_HFtQmhh7WeCAh-97" value="&lt;b style=&quot;font-size: 14px&quot;&gt;14&lt;/b&gt;" style="text;html=1;strokeColor=none;fillColor=none;align=left;verticalAlign=middle;whiteSpace=wrap;rounded=0;" parent="0FbnTfogBeN0D6H0uJNu-1" vertex="1">
          <mxGeometry x="793.5999999999999" y="460" width="118.2" height="14" as="geometry"/>
        </mxCell>
        <mxCell id="86lQQZ_HFtQmhh7WeCAh-98" value="&lt;b style=&quot;font-size: 14px&quot;&gt;13&lt;/b&gt;" style="text;html=1;strokeColor=none;fillColor=none;align=left;verticalAlign=middle;whiteSpace=wrap;rounded=0;" parent="0FbnTfogBeN0D6H0uJNu-1" vertex="1">
          <mxGeometry x="671.8" y="460" width="118.2" height="14" as="geometry"/>
        </mxCell>
        <mxCell id="86lQQZ_HFtQmhh7WeCAh-99" value="&lt;b style=&quot;font-size: 14px&quot;&gt;12&lt;/b&gt;" style="text;html=1;strokeColor=none;fillColor=none;align=left;verticalAlign=middle;whiteSpace=wrap;rounded=0;" parent="0FbnTfogBeN0D6H0uJNu-1" vertex="1">
          <mxGeometry x="551.8" y="460" width="118.2" height="14" as="geometry"/>
        </mxCell>
        <mxCell id="86lQQZ_HFtQmhh7WeCAh-100" value="&lt;b style=&quot;font-size: 14px&quot;&gt;11&lt;/b&gt;" style="text;html=1;strokeColor=none;fillColor=none;align=left;verticalAlign=middle;whiteSpace=wrap;rounded=0;" parent="0FbnTfogBeN0D6H0uJNu-1" vertex="1">
          <mxGeometry x="432.69999999999993" y="460" width="118.2" height="14" as="geometry"/>
        </mxCell>
        <mxCell id="86lQQZ_HFtQmhh7WeCAh-101" value="&lt;b style=&quot;font-size: 14px&quot;&gt;10&lt;/b&gt;" style="text;html=1;strokeColor=none;fillColor=none;align=left;verticalAlign=middle;whiteSpace=wrap;rounded=0;" parent="0FbnTfogBeN0D6H0uJNu-1" vertex="1">
          <mxGeometry x="312.69999999999993" y="460" width="118.2" height="14" as="geometry"/>
        </mxCell>
        <mxCell id="86lQQZ_HFtQmhh7WeCAh-102" value="&lt;b style=&quot;font-size: 14px&quot;&gt;9&lt;/b&gt;" style="text;html=1;strokeColor=none;fillColor=none;align=left;verticalAlign=middle;whiteSpace=wrap;rounded=0;" parent="0FbnTfogBeN0D6H0uJNu-1" vertex="1">
          <mxGeometry x="191.79999999999995" y="460" width="118.2" height="14" as="geometry"/>
        </mxCell>
        <mxCell id="86lQQZ_HFtQmhh7WeCAh-103" value="&lt;b style=&quot;font-size: 14px&quot;&gt;8&lt;/b&gt;" style="text;html=1;strokeColor=none;fillColor=none;align=left;verticalAlign=middle;whiteSpace=wrap;rounded=0;" parent="0FbnTfogBeN0D6H0uJNu-1" vertex="1">
          <mxGeometry x="911.8" y="380" width="118.2" height="14" as="geometry"/>
        </mxCell>
        <mxCell id="86lQQZ_HFtQmhh7WeCAh-104" value="&lt;b style=&quot;font-size: 14px&quot;&gt;7&lt;/b&gt;" style="text;html=1;strokeColor=none;fillColor=none;align=left;verticalAlign=middle;whiteSpace=wrap;rounded=0;" parent="0FbnTfogBeN0D6H0uJNu-1" vertex="1">
          <mxGeometry x="791.8" y="381" width="118.2" height="14" as="geometry"/>
        </mxCell>
        <mxCell id="86lQQZ_HFtQmhh7WeCAh-106" value="&lt;b style=&quot;font-size: 14px&quot;&gt;5&lt;/b&gt;" style="text;html=1;strokeColor=none;fillColor=none;align=left;verticalAlign=middle;whiteSpace=wrap;rounded=0;" parent="0FbnTfogBeN0D6H0uJNu-1" vertex="1">
          <mxGeometry x="553.5999999999999" y="381" width="118.2" height="14" as="geometry"/>
        </mxCell>
        <mxCell id="86lQQZ_HFtQmhh7WeCAh-107" value="&lt;b style=&quot;font-size: 14px&quot;&gt;4&lt;/b&gt;" style="text;html=1;strokeColor=none;fillColor=none;align=left;verticalAlign=middle;whiteSpace=wrap;rounded=0;" parent="0FbnTfogBeN0D6H0uJNu-1" vertex="1">
          <mxGeometry x="431.79999999999995" y="380" width="118.2" height="14" as="geometry"/>
        </mxCell>
        <mxCell id="86lQQZ_HFtQmhh7WeCAh-108" value="" style="endArrow=none;html=1;entryX=1.008;entryY=0.043;entryDx=0;entryDy=0;entryPerimeter=0;" parent="0FbnTfogBeN0D6H0uJNu-1" target="86lQQZ_HFtQmhh7WeCAh-107" edge="1">
          <mxGeometry width="50" height="50" relative="1" as="geometry">
            <mxPoint x="430" y="381" as="sourcePoint"/>
            <mxPoint x="1031.7999999999993" y="380" as="targetPoint"/>
          </mxGeometry>
        </mxCell>
        <mxCell id="86lQQZ_HFtQmhh7WeCAh-105" value="&lt;b style=&quot;font-size: 14px&quot;&gt;6&lt;/b&gt;" style="text;html=1;strokeColor=none;fillColor=none;align=left;verticalAlign=middle;whiteSpace=wrap;rounded=0;" parent="0FbnTfogBeN0D6H0uJNu-1" vertex="1">
          <mxGeometry x="671.8" y="380" width="118.2" height="14" as="geometry"/>
        </mxCell>
        <mxCell id="86lQQZ_HFtQmhh7WeCAh-109" value="" style="endArrow=none;html=1;entryX=1.008;entryY=0.043;entryDx=0;entryDy=0;entryPerimeter=0;" parent="0FbnTfogBeN0D6H0uJNu-1" target="86lQQZ_HFtQmhh7WeCAh-105" edge="1">
          <mxGeometry width="50" height="50" relative="1" as="geometry">
            <mxPoint x="550" y="381" as="sourcePoint"/>
            <mxPoint x="1031.7999999999993" y="380" as="targetPoint"/>
          </mxGeometry>
        </mxCell>
        <mxCell id="86lQQZ_HFtQmhh7WeCAh-95" value="&lt;b style=&quot;font-size: 14px&quot;&gt;17&lt;/b&gt;" style="text;html=1;strokeColor=none;fillColor=none;align=left;verticalAlign=middle;whiteSpace=wrap;rounded=0;" parent="0FbnTfogBeN0D6H0uJNu-1" vertex="1">
          <mxGeometry x="313.59999999999997" y="560" width="118.2" height="14" as="geometry"/>
        </mxCell>
        <mxCell id="86lQQZ_HFtQmhh7WeCAh-113" value="" style="endArrow=none;html=1;entryX=1.008;entryY=0.043;entryDx=0;entryDy=0;entryPerimeter=0;" parent="0FbnTfogBeN0D6H0uJNu-1" target="86lQQZ_HFtQmhh7WeCAh-95" edge="1">
          <mxGeometry width="50" height="50" relative="1" as="geometry">
            <mxPoint x="190" y="560" as="sourcePoint"/>
            <mxPoint x="1031.7999999999995" y="560" as="targetPoint"/>
          </mxGeometry>
        </mxCell>
        <mxCell id="86lQQZ_HFtQmhh7WeCAh-93" value="&lt;b style=&quot;font-size: 14px&quot;&gt;18&lt;/b&gt;" style="text;html=1;strokeColor=none;fillColor=none;align=left;verticalAlign=middle;whiteSpace=wrap;rounded=0;" parent="0FbnTfogBeN0D6H0uJNu-1" vertex="1">
          <mxGeometry x="431.79999999999995" y="560" width="118.2" height="14" as="geometry"/>
        </mxCell>
        <mxCell id="86lQQZ_HFtQmhh7WeCAh-114" value="" style="endArrow=none;html=1;entryX=1.008;entryY=0.043;entryDx=0;entryDy=0;entryPerimeter=0;" parent="0FbnTfogBeN0D6H0uJNu-1" target="86lQQZ_HFtQmhh7WeCAh-93" edge="1">
          <mxGeometry width="50" height="50" relative="1" as="geometry">
            <mxPoint x="432" y="561" as="sourcePoint"/>
            <mxPoint x="1031.7999999999993" y="560" as="targetPoint"/>
          </mxGeometry>
        </mxCell>
        <mxCell id="86lQQZ_HFtQmhh7WeCAh-92" value="&lt;b style=&quot;font-size: 14px&quot;&gt;19&lt;/b&gt;" style="text;html=1;strokeColor=none;fillColor=none;align=left;verticalAlign=middle;whiteSpace=wrap;rounded=0;" parent="0FbnTfogBeN0D6H0uJNu-1" vertex="1">
          <mxGeometry x="552.6999999999999" y="560" width="118.2" height="14" as="geometry"/>
        </mxCell>
        <mxCell id="86lQQZ_HFtQmhh7WeCAh-115" value="" style="endArrow=none;html=1;entryX=1.008;entryY=0.043;entryDx=0;entryDy=0;entryPerimeter=0;" parent="0FbnTfogBeN0D6H0uJNu-1" target="86lQQZ_HFtQmhh7WeCAh-92" edge="1">
          <mxGeometry width="50" height="50" relative="1" as="geometry">
            <mxPoint x="550" y="561" as="sourcePoint"/>
            <mxPoint x="1031.7999999999993" y="560" as="targetPoint"/>
          </mxGeometry>
        </mxCell>
        <mxCell id="86lQQZ_HFtQmhh7WeCAh-116" value="&lt;b style=&quot;font-size: 14px&quot;&gt;22&lt;/b&gt;" style="text;html=1;strokeColor=none;fillColor=none;align=left;verticalAlign=middle;whiteSpace=wrap;rounded=0;" parent="0FbnTfogBeN0D6H0uJNu-1" vertex="1">
          <mxGeometry x="912.6999999999999" y="560" width="118.2" height="14" as="geometry"/>
        </mxCell>
        <mxCell id="86lQQZ_HFtQmhh7WeCAh-118" value="&lt;b style=&quot;font-size: 14px&quot;&gt;29&lt;/b&gt;" style="text;html=1;strokeColor=none;fillColor=none;align=left;verticalAlign=middle;whiteSpace=wrap;rounded=0;" parent="0FbnTfogBeN0D6H0uJNu-1" vertex="1">
          <mxGeometry x="913.5999999999999" y="656" width="118.2" height="14" as="geometry"/>
        </mxCell>
        <mxCell id="86lQQZ_HFtQmhh7WeCAh-119" value="&lt;b style=&quot;font-size: 14px&quot;&gt;28&lt;/b&gt;" style="text;html=1;strokeColor=none;fillColor=none;align=left;verticalAlign=middle;whiteSpace=wrap;rounded=0;" parent="0FbnTfogBeN0D6H0uJNu-1" vertex="1">
          <mxGeometry x="794.5" y="656" width="118.2" height="14" as="geometry"/>
        </mxCell>
        <mxCell id="86lQQZ_HFtQmhh7WeCAh-120" value="&lt;b style=&quot;font-size: 14px&quot;&gt;27&lt;/b&gt;" style="text;html=1;strokeColor=none;fillColor=none;align=left;verticalAlign=middle;whiteSpace=wrap;rounded=0;" parent="0FbnTfogBeN0D6H0uJNu-1" vertex="1">
          <mxGeometry x="671.8" y="656" width="118.2" height="14" as="geometry"/>
        </mxCell>
        <mxCell id="86lQQZ_HFtQmhh7WeCAh-121" value="&lt;b style=&quot;font-size: 14px&quot;&gt;26&lt;/b&gt;" style="text;html=1;strokeColor=none;fillColor=none;align=left;verticalAlign=middle;whiteSpace=wrap;rounded=0;" parent="0FbnTfogBeN0D6H0uJNu-1" vertex="1">
          <mxGeometry x="553.5999999999999" y="656" width="118.2" height="14" as="geometry"/>
        </mxCell>
        <mxCell id="86lQQZ_HFtQmhh7WeCAh-122" value="&lt;b style=&quot;font-size: 14px&quot;&gt;25&lt;/b&gt;" style="text;html=1;strokeColor=none;fillColor=none;align=left;verticalAlign=middle;whiteSpace=wrap;rounded=0;" parent="0FbnTfogBeN0D6H0uJNu-1" vertex="1">
          <mxGeometry x="431.79999999999995" y="656" width="118.2" height="14" as="geometry"/>
        </mxCell>
        <mxCell id="86lQQZ_HFtQmhh7WeCAh-123" value="&lt;b style=&quot;font-size: 14px&quot;&gt;24&lt;/b&gt;" style="text;html=1;strokeColor=none;fillColor=none;align=left;verticalAlign=middle;whiteSpace=wrap;rounded=0;" parent="0FbnTfogBeN0D6H0uJNu-1" vertex="1">
          <mxGeometry x="312.69999999999993" y="656" width="118.2" height="14" as="geometry"/>
        </mxCell>
        <mxCell id="86lQQZ_HFtQmhh7WeCAh-124" value="&lt;b style=&quot;font-size: 14px&quot;&gt;23&lt;/b&gt;" style="text;html=1;strokeColor=none;fillColor=none;align=left;verticalAlign=middle;whiteSpace=wrap;rounded=0;" parent="0FbnTfogBeN0D6H0uJNu-1" vertex="1">
          <mxGeometry x="192.69999999999993" y="656" width="118.2" height="14" as="geometry"/>
        </mxCell>
        <mxCell id="hpF6MXox4R8xfjnI8_eE-0" value="PDD" style="rounded=0;whiteSpace=wrap;html=1;" parent="0FbnTfogBeN0D6H0uJNu-1" vertex="1">
          <mxGeometry x="301.50000000000006" y="190" width="120" height="40" as="geometry"/>
        </mxCell>
        <mxCell id="hpF6MXox4R8xfjnI8_eE-1" value="Childrens" style="rounded=0;whiteSpace=wrap;html=1;fillColor=#d5e8d4;strokeColor=#82b366;" parent="0FbnTfogBeN0D6H0uJNu-1" vertex="1">
          <mxGeometry x="427.90000000000003" y="190" width="120" height="40" as="geometry"/>
        </mxCell>
        <mxCell id="hpF6MXox4R8xfjnI8_eE-2" value="CTO" style="rounded=0;whiteSpace=wrap;html=1;fillColor=#f8cecc;strokeColor=#b85450;" parent="0FbnTfogBeN0D6H0uJNu-1" vertex="1">
          <mxGeometry x="554.9" y="190" width="120" height="40" as="geometry"/>
        </mxCell>
        <mxCell id="hpF6MXox4R8xfjnI8_eE-3" value="Group Home" style="rounded=0;whiteSpace=wrap;html=1;fillColor=#e1d5e7;strokeColor=#9673a6;" parent="0FbnTfogBeN0D6H0uJNu-1" vertex="1">
          <mxGeometry x="679.9" y="190" width="120" height="40" as="geometry"/>
        </mxCell>
        <mxCell id="hpF6MXox4R8xfjnI8_eE-4" value="Private" style="rounded=0;whiteSpace=wrap;html=1;fillColor=#fff2cc;strokeColor=#d6b656;" parent="0FbnTfogBeN0D6H0uJNu-1" vertex="1">
          <mxGeometry x="803.9" y="190" width="120" height="40" as="geometry"/>
        </mxCell>
        <mxCell id="wYGH1agN9tKTNIJL4NUy-0" value="&lt;span style=&quot;white-space: normal&quot;&gt;9:00 AM - 9:00 PM&lt;/span&gt;&lt;br style=&quot;white-space: normal&quot;&gt;House 11" style="rounded=0;whiteSpace=wrap;html=1;fillColor=#e1d5e7;strokeColor=#9673a6;" parent="0FbnTfogBeN0D6H0uJNu-1" vertex="1">
          <mxGeometry x="431.8" y="395" width="120" height="40" as="geometry"/>
        </mxCell>
        <mxCell id="wYGH1agN9tKTNIJL4NUy-3" value="&lt;span style=&quot;white-space: normal&quot;&gt;9:00 AM - 9:00 PM&lt;/span&gt;&lt;br style=&quot;white-space: normal&quot;&gt;House 11" style="rounded=0;whiteSpace=wrap;html=1;fillColor=#e1d5e7;strokeColor=#9673a6;" parent="0FbnTfogBeN0D6H0uJNu-1" vertex="1">
          <mxGeometry x="671.8" y="397" width="120" height="40" as="geometry"/>
        </mxCell>
        <mxCell id="wYGH1agN9tKTNIJL4NUy-4" value="&lt;span style=&quot;white-space: normal&quot;&gt;9:00 AM - 9:00 PM&lt;/span&gt;&lt;br style=&quot;white-space: normal&quot;&gt;House 11" style="rounded=0;whiteSpace=wrap;html=1;fillColor=#e1d5e7;strokeColor=#9673a6;" parent="0FbnTfogBeN0D6H0uJNu-1" vertex="1">
          <mxGeometry x="431.8" y="574" width="120" height="40" as="geometry"/>
        </mxCell>
        <mxCell id="wYGH1agN9tKTNIJL4NUy-5" value="&lt;span style=&quot;white-space: normal&quot;&gt;9:00 AM - 9:00 PM&lt;/span&gt;&lt;br style=&quot;white-space: normal&quot;&gt;House 11" style="rounded=0;whiteSpace=wrap;html=1;fillColor=#e1d5e7;strokeColor=#9673a6;" parent="0FbnTfogBeN0D6H0uJNu-1" vertex="1">
          <mxGeometry x="671.8" y="474" width="120" height="40" as="geometry"/>
        </mxCell>
        <mxCell id="wYGH1agN9tKTNIJL4NUy-6" value="&lt;span style=&quot;white-space: normal&quot;&gt;9:00 AM - 9:00 PM&lt;/span&gt;&lt;br style=&quot;white-space: normal&quot;&gt;House 11" style="rounded=0;whiteSpace=wrap;html=1;fillColor=#e1d5e7;strokeColor=#9673a6;" parent="0FbnTfogBeN0D6H0uJNu-1" vertex="1">
          <mxGeometry x="431.8" y="474" width="120" height="40" as="geometry"/>
        </mxCell>
        <mxCell id="wYGH1agN9tKTNIJL4NUy-7" value="&lt;span style=&quot;white-space: normal&quot;&gt;9:00 AM - 9:00 PM&lt;/span&gt;&lt;br style=&quot;white-space: normal&quot;&gt;House 11" style="rounded=0;whiteSpace=wrap;html=1;fillColor=#e1d5e7;strokeColor=#9673a6;" parent="0FbnTfogBeN0D6H0uJNu-1" vertex="1">
          <mxGeometry x="671.8" y="574" width="120" height="40" as="geometry"/>
        </mxCell>
        <mxCell id="wYGH1agN9tKTNIJL4NUy-8" value="&lt;span style=&quot;white-space: normal&quot;&gt;9:00 AM - 9:00 PM&lt;/span&gt;&lt;br style=&quot;white-space: normal&quot;&gt;House 11" style="rounded=0;whiteSpace=wrap;html=1;fillColor=#e1d5e7;strokeColor=#9673a6;" parent="0FbnTfogBeN0D6H0uJNu-1" vertex="1">
          <mxGeometry x="671.8" y="670" width="120" height="40" as="geometry"/>
        </mxCell>
        <mxCell id="wYGH1agN9tKTNIJL4NUy-9" value="&lt;span style=&quot;white-space: normal&quot;&gt;9:00 AM - 9:00 PM&lt;/span&gt;&lt;br style=&quot;white-space: normal&quot;&gt;House 11" style="rounded=0;whiteSpace=wrap;html=1;fillColor=#e1d5e7;strokeColor=#9673a6;" parent="0FbnTfogBeN0D6H0uJNu-1" vertex="1">
          <mxGeometry x="431.8" y="670" width="120" height="40" as="geometry"/>
        </mxCell>
        <mxCell id="i5UmYp3HXJm_rszH7ou6-0" value="&lt;font style=&quot;font-size: 20px&quot;&gt;&lt;b&gt;Schedule for Frank Workman&lt;/b&gt;&lt;/font&gt;" style="text;html=1;strokeColor=none;fillColor=none;align=center;verticalAlign=middle;whiteSpace=wrap;rounded=0;" vertex="1" parent="0FbnTfogBeN0D6H0uJNu-1">
          <mxGeometry x="435" y="140" width="350" height="30" as="geometry"/>
        </mxCell>
        <mxCell id="i5UmYp3HXJm_rszH7ou6-1" value="" style="triangle;whiteSpace=wrap;html=1;" vertex="1" parent="0FbnTfogBeN0D6H0uJNu-1">
          <mxGeometry x="1000" y="245" width="20" height="30" as="geometry"/>
        </mxCell>
        <mxCell id="i5UmYp3HXJm_rszH7ou6-2" value="" style="triangle;whiteSpace=wrap;html=1;direction=west;" vertex="1" parent="0FbnTfogBeN0D6H0uJNu-1">
          <mxGeometry x="200" y="245" width="20" height="30" as="geometry"/>
        </mxCell>
      </root>
    </mxGraphModel>
  </diagram>
  <diagram id="l_XLelFGK0SrKphf6Kbc" name="Week View">
    <mxGraphModel dx="1888" dy="580" grid="1" gridSize="10" guides="1" tooltips="1" connect="1" arrows="1" fold="1" page="1" pageScale="1" pageWidth="850" pageHeight="1100" math="0" shadow="0">
      <root>
        <mxCell id="0"/>
        <mxCell id="1" parent="0"/>
        <mxCell id="4BJEDGzdUpcZ-naStXSg-1" value="" style="rounded=0;whiteSpace=wrap;html=1;" parent="1" vertex="1">
          <mxGeometry x="80" y="120" width="720" height="260" as="geometry"/>
        </mxCell>
        <mxCell id="4BJEDGzdUpcZ-naStXSg-2" value="" style="rounded=0;whiteSpace=wrap;html=1;" parent="1" vertex="1">
          <mxGeometry x="80" y="90" width="840" height="60" as="geometry"/>
        </mxCell>
        <mxCell id="4BJEDGzdUpcZ-naStXSg-3" value="" style="rounded=0;whiteSpace=wrap;html=1;" parent="1" vertex="1">
          <mxGeometry x="80" y="150" width="120" height="480" as="geometry"/>
        </mxCell>
        <mxCell id="4BJEDGzdUpcZ-naStXSg-4" value="" style="rounded=0;whiteSpace=wrap;html=1;" parent="1" vertex="1">
          <mxGeometry x="200" y="150" width="120" height="480" as="geometry"/>
        </mxCell>
        <mxCell id="4BJEDGzdUpcZ-naStXSg-5" value="" style="rounded=0;whiteSpace=wrap;html=1;" parent="1" vertex="1">
          <mxGeometry x="320" y="150" width="120" height="480" as="geometry"/>
        </mxCell>
        <mxCell id="4BJEDGzdUpcZ-naStXSg-6" value="" style="rounded=0;whiteSpace=wrap;html=1;" parent="1" vertex="1">
          <mxGeometry x="440" y="150" width="120" height="480" as="geometry"/>
        </mxCell>
        <mxCell id="4BJEDGzdUpcZ-naStXSg-7" value="" style="rounded=0;whiteSpace=wrap;html=1;" parent="1" vertex="1">
          <mxGeometry x="560" y="150" width="120" height="480" as="geometry"/>
        </mxCell>
        <mxCell id="4BJEDGzdUpcZ-naStXSg-8" value="" style="rounded=0;whiteSpace=wrap;html=1;" parent="1" vertex="1">
          <mxGeometry x="680" y="150" width="120" height="480" as="geometry"/>
        </mxCell>
        <mxCell id="4BJEDGzdUpcZ-naStXSg-9" value="" style="rounded=0;whiteSpace=wrap;html=1;" parent="1" vertex="1">
          <mxGeometry x="800" y="150" width="120" height="480" as="geometry"/>
        </mxCell>
        <mxCell id="4BJEDGzdUpcZ-naStXSg-12" value="" style="rounded=0;whiteSpace=wrap;html=1;" parent="1" vertex="1">
          <mxGeometry x="-40" y="150" width="120" height="480" as="geometry"/>
        </mxCell>
        <mxCell id="4BJEDGzdUpcZ-naStXSg-13" value="" style="rounded=0;whiteSpace=wrap;html=1;" parent="1" vertex="1">
          <mxGeometry x="-40" y="90" width="120" height="60" as="geometry"/>
        </mxCell>
        <mxCell id="4BJEDGzdUpcZ-naStXSg-14" value="Sunday" style="text;html=1;strokeColor=none;fillColor=none;align=center;verticalAlign=middle;whiteSpace=wrap;rounded=0;" parent="1" vertex="1">
          <mxGeometry x="120" y="100" width="40" height="20" as="geometry"/>
        </mxCell>
        <mxCell id="4BJEDGzdUpcZ-naStXSg-15" value="Monday" style="text;html=1;strokeColor=none;fillColor=none;align=center;verticalAlign=middle;whiteSpace=wrap;rounded=0;" parent="1" vertex="1">
          <mxGeometry x="240" y="100" width="40" height="20" as="geometry"/>
        </mxCell>
        <mxCell id="4BJEDGzdUpcZ-naStXSg-16" value="Tuesday" style="text;html=1;strokeColor=none;fillColor=none;align=center;verticalAlign=middle;whiteSpace=wrap;rounded=0;" parent="1" vertex="1">
          <mxGeometry x="360" y="100" width="40" height="20" as="geometry"/>
        </mxCell>
        <mxCell id="4BJEDGzdUpcZ-naStXSg-17" value="Wednesday" style="text;html=1;strokeColor=none;fillColor=none;align=center;verticalAlign=middle;whiteSpace=wrap;rounded=0;" parent="1" vertex="1">
          <mxGeometry x="480" y="100" width="40" height="20" as="geometry"/>
        </mxCell>
        <mxCell id="4BJEDGzdUpcZ-naStXSg-18" value="Thursday" style="text;html=1;strokeColor=none;fillColor=none;align=center;verticalAlign=middle;whiteSpace=wrap;rounded=0;" parent="1" vertex="1">
          <mxGeometry x="600" y="100" width="40" height="20" as="geometry"/>
        </mxCell>
        <mxCell id="4BJEDGzdUpcZ-naStXSg-19" value="Friday" style="text;html=1;strokeColor=none;fillColor=none;align=center;verticalAlign=middle;whiteSpace=wrap;rounded=0;" parent="1" vertex="1">
          <mxGeometry x="720" y="100" width="40" height="20" as="geometry"/>
        </mxCell>
        <mxCell id="4BJEDGzdUpcZ-naStXSg-20" value="Saturday" style="text;html=1;strokeColor=none;fillColor=none;align=center;verticalAlign=middle;whiteSpace=wrap;rounded=0;" parent="1" vertex="1">
          <mxGeometry x="840" y="100" width="40" height="20" as="geometry"/>
        </mxCell>
        <mxCell id="4BJEDGzdUpcZ-naStXSg-22" value="0:00" style="text;html=1;strokeColor=none;fillColor=none;align=center;verticalAlign=middle;whiteSpace=wrap;rounded=0;" parent="1" vertex="1">
          <mxGeometry y="150" width="40" height="20" as="geometry"/>
        </mxCell>
        <mxCell id="4BJEDGzdUpcZ-naStXSg-24" value="1:00" style="text;html=1;strokeColor=none;fillColor=none;align=center;verticalAlign=middle;whiteSpace=wrap;rounded=0;" parent="1" vertex="1">
          <mxGeometry y="170" width="40" height="20" as="geometry"/>
        </mxCell>
        <mxCell id="4BJEDGzdUpcZ-naStXSg-25" value="2:00" style="text;html=1;strokeColor=none;fillColor=none;align=center;verticalAlign=middle;whiteSpace=wrap;rounded=0;" parent="1" vertex="1">
          <mxGeometry y="190" width="40" height="20" as="geometry"/>
        </mxCell>
        <mxCell id="4BJEDGzdUpcZ-naStXSg-26" value="3:00" style="text;html=1;strokeColor=none;fillColor=none;align=center;verticalAlign=middle;whiteSpace=wrap;rounded=0;" parent="1" vertex="1">
          <mxGeometry y="210" width="40" height="20" as="geometry"/>
        </mxCell>
        <mxCell id="4BJEDGzdUpcZ-naStXSg-27" value="4:00" style="text;html=1;strokeColor=none;fillColor=none;align=center;verticalAlign=middle;whiteSpace=wrap;rounded=0;" parent="1" vertex="1">
          <mxGeometry y="230" width="40" height="20" as="geometry"/>
        </mxCell>
        <mxCell id="4BJEDGzdUpcZ-naStXSg-28" value="5:00" style="text;html=1;strokeColor=none;fillColor=none;align=center;verticalAlign=middle;whiteSpace=wrap;rounded=0;" parent="1" vertex="1">
          <mxGeometry y="250" width="40" height="20" as="geometry"/>
        </mxCell>
        <mxCell id="4BJEDGzdUpcZ-naStXSg-29" value="6:00" style="text;html=1;strokeColor=none;fillColor=none;align=center;verticalAlign=middle;whiteSpace=wrap;rounded=0;" parent="1" vertex="1">
          <mxGeometry y="270" width="40" height="20" as="geometry"/>
        </mxCell>
        <mxCell id="4BJEDGzdUpcZ-naStXSg-30" value="7:00" style="text;html=1;strokeColor=none;fillColor=none;align=center;verticalAlign=middle;whiteSpace=wrap;rounded=0;" parent="1" vertex="1">
          <mxGeometry y="290" width="40" height="20" as="geometry"/>
        </mxCell>
        <mxCell id="4BJEDGzdUpcZ-naStXSg-31" value="8:00" style="text;html=1;strokeColor=none;fillColor=none;align=center;verticalAlign=middle;whiteSpace=wrap;rounded=0;" parent="1" vertex="1">
          <mxGeometry y="310" width="40" height="20" as="geometry"/>
        </mxCell>
        <mxCell id="4BJEDGzdUpcZ-naStXSg-32" value="9:00" style="text;html=1;strokeColor=none;fillColor=none;align=center;verticalAlign=middle;whiteSpace=wrap;rounded=0;" parent="1" vertex="1">
          <mxGeometry y="330" width="40" height="20" as="geometry"/>
        </mxCell>
        <mxCell id="4BJEDGzdUpcZ-naStXSg-36" value="10:00" style="text;html=1;strokeColor=none;fillColor=none;align=center;verticalAlign=middle;whiteSpace=wrap;rounded=0;" parent="1" vertex="1">
          <mxGeometry y="350" width="40" height="20" as="geometry"/>
        </mxCell>
        <mxCell id="4BJEDGzdUpcZ-naStXSg-37" value="11:00" style="text;html=1;strokeColor=none;fillColor=none;align=center;verticalAlign=middle;whiteSpace=wrap;rounded=0;" parent="1" vertex="1">
          <mxGeometry y="370" width="40" height="20" as="geometry"/>
        </mxCell>
        <mxCell id="4BJEDGzdUpcZ-naStXSg-38" value="13:00" style="text;html=1;strokeColor=none;fillColor=none;align=center;verticalAlign=middle;whiteSpace=wrap;rounded=0;" parent="1" vertex="1">
          <mxGeometry y="410" width="40" height="20" as="geometry"/>
        </mxCell>
        <mxCell id="4BJEDGzdUpcZ-naStXSg-39" value="12:00" style="text;html=1;strokeColor=none;fillColor=none;align=center;verticalAlign=middle;whiteSpace=wrap;rounded=0;" parent="1" vertex="1">
          <mxGeometry y="390" width="40" height="20" as="geometry"/>
        </mxCell>
        <mxCell id="4BJEDGzdUpcZ-naStXSg-40" value="19:00" style="text;html=1;strokeColor=none;fillColor=none;align=center;verticalAlign=middle;whiteSpace=wrap;rounded=0;" parent="1" vertex="1">
          <mxGeometry y="530" width="40" height="20" as="geometry"/>
        </mxCell>
        <mxCell id="4BJEDGzdUpcZ-naStXSg-41" value="18:00" style="text;html=1;strokeColor=none;fillColor=none;align=center;verticalAlign=middle;whiteSpace=wrap;rounded=0;" parent="1" vertex="1">
          <mxGeometry y="510" width="40" height="20" as="geometry"/>
        </mxCell>
        <mxCell id="4BJEDGzdUpcZ-naStXSg-42" value="17:00" style="text;html=1;strokeColor=none;fillColor=none;align=center;verticalAlign=middle;whiteSpace=wrap;rounded=0;" parent="1" vertex="1">
          <mxGeometry y="490" width="40" height="20" as="geometry"/>
        </mxCell>
        <mxCell id="4BJEDGzdUpcZ-naStXSg-43" value="16:00" style="text;html=1;strokeColor=none;fillColor=none;align=center;verticalAlign=middle;whiteSpace=wrap;rounded=0;" parent="1" vertex="1">
          <mxGeometry y="470" width="40" height="20" as="geometry"/>
        </mxCell>
        <mxCell id="4BJEDGzdUpcZ-naStXSg-44" value="15:00" style="text;html=1;strokeColor=none;fillColor=none;align=center;verticalAlign=middle;whiteSpace=wrap;rounded=0;" parent="1" vertex="1">
          <mxGeometry y="450" width="40" height="20" as="geometry"/>
        </mxCell>
        <mxCell id="4BJEDGzdUpcZ-naStXSg-45" value="14:00" style="text;html=1;strokeColor=none;fillColor=none;align=center;verticalAlign=middle;whiteSpace=wrap;rounded=0;" parent="1" vertex="1">
          <mxGeometry y="430" width="40" height="20" as="geometry"/>
        </mxCell>
        <mxCell id="4BJEDGzdUpcZ-naStXSg-47" value="20:00" style="text;html=1;strokeColor=none;fillColor=none;align=center;verticalAlign=middle;whiteSpace=wrap;rounded=0;" parent="1" vertex="1">
          <mxGeometry y="550" width="40" height="20" as="geometry"/>
        </mxCell>
        <mxCell id="4BJEDGzdUpcZ-naStXSg-48" value="21:00" style="text;html=1;strokeColor=none;fillColor=none;align=center;verticalAlign=middle;whiteSpace=wrap;rounded=0;" parent="1" vertex="1">
          <mxGeometry y="570" width="40" height="20" as="geometry"/>
        </mxCell>
        <mxCell id="4BJEDGzdUpcZ-naStXSg-49" value="23:00" style="text;html=1;strokeColor=none;fillColor=none;align=center;verticalAlign=middle;whiteSpace=wrap;rounded=0;" parent="1" vertex="1">
          <mxGeometry y="610" width="40" height="20" as="geometry"/>
        </mxCell>
        <mxCell id="4BJEDGzdUpcZ-naStXSg-51" value="22:00" style="text;html=1;strokeColor=none;fillColor=none;align=center;verticalAlign=middle;whiteSpace=wrap;rounded=0;" parent="1" vertex="1">
          <mxGeometry y="590" width="40" height="20" as="geometry"/>
        </mxCell>
        <mxCell id="4BJEDGzdUpcZ-naStXSg-56" value="Feb. 2" style="text;html=1;strokeColor=none;fillColor=none;align=center;verticalAlign=middle;whiteSpace=wrap;rounded=0;" parent="1" vertex="1">
          <mxGeometry x="90" y="120" width="100" height="20" as="geometry"/>
        </mxCell>
        <mxCell id="4BJEDGzdUpcZ-naStXSg-57" value="Feb. 7" style="text;html=1;strokeColor=none;fillColor=none;align=center;verticalAlign=middle;whiteSpace=wrap;rounded=0;" parent="1" vertex="1">
          <mxGeometry x="690" y="120" width="100" height="20" as="geometry"/>
        </mxCell>
        <mxCell id="4BJEDGzdUpcZ-naStXSg-58" value="Feb. 6" style="text;html=1;strokeColor=none;fillColor=none;align=center;verticalAlign=middle;whiteSpace=wrap;rounded=0;" parent="1" vertex="1">
          <mxGeometry x="570" y="120" width="100" height="20" as="geometry"/>
        </mxCell>
        <mxCell id="4BJEDGzdUpcZ-naStXSg-59" value="Feb. 5" style="text;html=1;strokeColor=none;fillColor=none;align=center;verticalAlign=middle;whiteSpace=wrap;rounded=0;" parent="1" vertex="1">
          <mxGeometry x="450" y="120" width="100" height="20" as="geometry"/>
        </mxCell>
        <mxCell id="4BJEDGzdUpcZ-naStXSg-60" value="Feb. 4" style="text;html=1;strokeColor=none;fillColor=none;align=center;verticalAlign=middle;whiteSpace=wrap;rounded=0;" parent="1" vertex="1">
          <mxGeometry x="330" y="120" width="100" height="20" as="geometry"/>
        </mxCell>
        <mxCell id="4BJEDGzdUpcZ-naStXSg-61" value="Feb. 3" style="text;html=1;strokeColor=none;fillColor=none;align=center;verticalAlign=middle;whiteSpace=wrap;rounded=0;" parent="1" vertex="1">
          <mxGeometry x="210" y="120" width="100" height="20" as="geometry"/>
        </mxCell>
        <mxCell id="4BJEDGzdUpcZ-naStXSg-63" value="Feb. 8" style="text;html=1;strokeColor=none;fillColor=none;align=center;verticalAlign=middle;whiteSpace=wrap;rounded=0;" parent="1" vertex="1">
          <mxGeometry x="810" y="120" width="100" height="20" as="geometry"/>
        </mxCell>
        <mxCell id="4BJEDGzdUpcZ-naStXSg-65" value="" style="endArrow=none;html=1;exitX=-0.007;exitY=0.043;exitDx=0;exitDy=0;exitPerimeter=0;entryX=1.008;entryY=0.043;entryDx=0;entryDy=0;entryPerimeter=0;" parent="1" source="4BJEDGzdUpcZ-naStXSg-12" target="4BJEDGzdUpcZ-naStXSg-9" edge="1">
          <mxGeometry width="50" height="50" relative="1" as="geometry">
            <mxPoint x="-120" y="140" as="sourcePoint"/>
            <mxPoint x="-90" y="210" as="targetPoint"/>
          </mxGeometry>
        </mxCell>
        <mxCell id="4BJEDGzdUpcZ-naStXSg-66" value="" style="endArrow=none;html=1;exitX=-0.007;exitY=0.043;exitDx=0;exitDy=0;exitPerimeter=0;entryX=1.008;entryY=0.043;entryDx=0;entryDy=0;entryPerimeter=0;" parent="1" edge="1">
          <mxGeometry width="50" height="50" relative="1" as="geometry">
            <mxPoint x="-41.79999999999992" y="249.40999999999985" as="sourcePoint"/>
            <mxPoint x="919.9999999999995" y="249.40999999999985" as="targetPoint"/>
          </mxGeometry>
        </mxCell>
        <mxCell id="4BJEDGzdUpcZ-naStXSg-67" value="" style="endArrow=none;html=1;exitX=-0.007;exitY=0.043;exitDx=0;exitDy=0;exitPerimeter=0;entryX=1.008;entryY=0.043;entryDx=0;entryDy=0;entryPerimeter=0;" parent="1" edge="1">
          <mxGeometry width="50" height="50" relative="1" as="geometry">
            <mxPoint x="-41.79999999999992" y="269.9999999999999" as="sourcePoint"/>
            <mxPoint x="919.9999999999995" y="269.9999999999999" as="targetPoint"/>
          </mxGeometry>
        </mxCell>
        <mxCell id="4BJEDGzdUpcZ-naStXSg-68" value="" style="endArrow=none;html=1;exitX=-0.007;exitY=0.043;exitDx=0;exitDy=0;exitPerimeter=0;entryX=1.008;entryY=0.043;entryDx=0;entryDy=0;entryPerimeter=0;" parent="1" edge="1">
          <mxGeometry width="50" height="50" relative="1" as="geometry">
            <mxPoint x="-41.79999999999992" y="289.9999999999999" as="sourcePoint"/>
            <mxPoint x="919.9999999999995" y="289.9999999999999" as="targetPoint"/>
          </mxGeometry>
        </mxCell>
        <mxCell id="4BJEDGzdUpcZ-naStXSg-69" value="" style="endArrow=none;html=1;exitX=-0.007;exitY=0.043;exitDx=0;exitDy=0;exitPerimeter=0;entryX=1.008;entryY=0.043;entryDx=0;entryDy=0;entryPerimeter=0;" parent="1" edge="1">
          <mxGeometry width="50" height="50" relative="1" as="geometry">
            <mxPoint x="-41.79999999999992" y="309.9999999999999" as="sourcePoint"/>
            <mxPoint x="919.9999999999995" y="309.9999999999999" as="targetPoint"/>
          </mxGeometry>
        </mxCell>
        <mxCell id="4BJEDGzdUpcZ-naStXSg-70" value="" style="endArrow=none;html=1;exitX=-0.007;exitY=0.043;exitDx=0;exitDy=0;exitPerimeter=0;entryX=1.008;entryY=0.043;entryDx=0;entryDy=0;entryPerimeter=0;" parent="1" edge="1">
          <mxGeometry width="50" height="50" relative="1" as="geometry">
            <mxPoint x="-40.89999999999992" y="329.9999999999999" as="sourcePoint"/>
            <mxPoint x="920.8999999999996" y="329.9999999999999" as="targetPoint"/>
          </mxGeometry>
        </mxCell>
        <mxCell id="4BJEDGzdUpcZ-naStXSg-71" value="" style="endArrow=none;html=1;entryX=1.008;entryY=0.043;entryDx=0;entryDy=0;entryPerimeter=0;" parent="1" edge="1">
          <mxGeometry width="50" height="50" relative="1" as="geometry">
            <mxPoint x="199" y="350" as="sourcePoint"/>
            <mxPoint x="920.8999999999996" y="349.9999999999999" as="targetPoint"/>
          </mxGeometry>
        </mxCell>
        <mxCell id="4BJEDGzdUpcZ-naStXSg-72" value="" style="endArrow=none;html=1;exitX=-0.007;exitY=0.043;exitDx=0;exitDy=0;exitPerimeter=0;entryX=1.008;entryY=0.043;entryDx=0;entryDy=0;entryPerimeter=0;" parent="1" edge="1">
          <mxGeometry width="50" height="50" relative="1" as="geometry">
            <mxPoint x="-39.999999999999915" y="369.9999999999999" as="sourcePoint"/>
            <mxPoint x="921.7999999999996" y="369.9999999999999" as="targetPoint"/>
          </mxGeometry>
        </mxCell>
        <mxCell id="4BJEDGzdUpcZ-naStXSg-73" value="" style="endArrow=none;html=1;exitX=-0.007;exitY=0.043;exitDx=0;exitDy=0;exitPerimeter=0;entryX=1.008;entryY=0.043;entryDx=0;entryDy=0;entryPerimeter=0;" parent="1" edge="1">
          <mxGeometry width="50" height="50" relative="1" as="geometry">
            <mxPoint x="-41.79999999999991" y="389.40999999999985" as="sourcePoint"/>
            <mxPoint x="919.9999999999995" y="389.40999999999985" as="targetPoint"/>
          </mxGeometry>
        </mxCell>
        <mxCell id="4BJEDGzdUpcZ-naStXSg-74" value="" style="endArrow=none;html=1;exitX=-0.007;exitY=0.043;exitDx=0;exitDy=0;exitPerimeter=0;entryX=1.008;entryY=0.043;entryDx=0;entryDy=0;entryPerimeter=0;" parent="1" edge="1">
          <mxGeometry width="50" height="50" relative="1" as="geometry">
            <mxPoint x="-41.79999999999991" y="409.9999999999999" as="sourcePoint"/>
            <mxPoint x="919.9999999999995" y="409.9999999999999" as="targetPoint"/>
          </mxGeometry>
        </mxCell>
        <mxCell id="4BJEDGzdUpcZ-naStXSg-75" value="" style="endArrow=none;html=1;exitX=-0.007;exitY=0.043;exitDx=0;exitDy=0;exitPerimeter=0;entryX=1.008;entryY=0.043;entryDx=0;entryDy=0;entryPerimeter=0;" parent="1" edge="1">
          <mxGeometry width="50" height="50" relative="1" as="geometry">
            <mxPoint x="-41.79999999999991" y="429.9999999999999" as="sourcePoint"/>
            <mxPoint x="919.9999999999995" y="429.9999999999999" as="targetPoint"/>
          </mxGeometry>
        </mxCell>
        <mxCell id="4BJEDGzdUpcZ-naStXSg-76" value="" style="endArrow=none;html=1;exitX=-0.007;exitY=0.043;exitDx=0;exitDy=0;exitPerimeter=0;entryX=1.008;entryY=0.043;entryDx=0;entryDy=0;entryPerimeter=0;" parent="1" edge="1">
          <mxGeometry width="50" height="50" relative="1" as="geometry">
            <mxPoint x="-39.999999999999915" y="449.9999999999999" as="sourcePoint"/>
            <mxPoint x="921.7999999999996" y="449.9999999999999" as="targetPoint"/>
          </mxGeometry>
        </mxCell>
        <mxCell id="4BJEDGzdUpcZ-naStXSg-77" value="" style="endArrow=none;html=1;exitX=-0.007;exitY=0.043;exitDx=0;exitDy=0;exitPerimeter=0;entryX=1.008;entryY=0.043;entryDx=0;entryDy=0;entryPerimeter=0;" parent="1" edge="1">
          <mxGeometry width="50" height="50" relative="1" as="geometry">
            <mxPoint x="-39.999999999999915" y="469.9999999999999" as="sourcePoint"/>
            <mxPoint x="921.7999999999996" y="469.9999999999999" as="targetPoint"/>
          </mxGeometry>
        </mxCell>
        <mxCell id="4BJEDGzdUpcZ-naStXSg-78" value="" style="endArrow=none;html=1;exitX=1;exitY=0.5;exitDx=0;exitDy=0;entryX=1.008;entryY=0.043;entryDx=0;entryDy=0;entryPerimeter=0;" parent="1" source="4BJEDGzdUpcZ-naStXSg-93" edge="1">
          <mxGeometry width="50" height="50" relative="1" as="geometry">
            <mxPoint x="-41.799999999999926" y="489.9999999999999" as="sourcePoint"/>
            <mxPoint x="919.9999999999995" y="489.9999999999999" as="targetPoint"/>
          </mxGeometry>
        </mxCell>
        <mxCell id="4BJEDGzdUpcZ-naStXSg-79" value="" style="endArrow=none;html=1;exitX=-0.007;exitY=0.043;exitDx=0;exitDy=0;exitPerimeter=0;entryX=1.008;entryY=0.043;entryDx=0;entryDy=0;entryPerimeter=0;" parent="1" edge="1">
          <mxGeometry width="50" height="50" relative="1" as="geometry">
            <mxPoint x="-39.999999999999915" y="509.9999999999999" as="sourcePoint"/>
            <mxPoint x="921.7999999999996" y="509.9999999999999" as="targetPoint"/>
          </mxGeometry>
        </mxCell>
        <mxCell id="4BJEDGzdUpcZ-naStXSg-80" value="" style="endArrow=none;html=1;exitX=-0.007;exitY=0.043;exitDx=0;exitDy=0;exitPerimeter=0;entryX=1.008;entryY=0.043;entryDx=0;entryDy=0;entryPerimeter=0;" parent="1" edge="1">
          <mxGeometry width="50" height="50" relative="1" as="geometry">
            <mxPoint x="-41.799999999999926" y="529.9999999999999" as="sourcePoint"/>
            <mxPoint x="919.9999999999995" y="529.9999999999999" as="targetPoint"/>
          </mxGeometry>
        </mxCell>
        <mxCell id="4BJEDGzdUpcZ-naStXSg-81" value="" style="endArrow=none;html=1;exitX=-0.007;exitY=0.043;exitDx=0;exitDy=0;exitPerimeter=0;entryX=1.008;entryY=0.043;entryDx=0;entryDy=0;entryPerimeter=0;" parent="1" edge="1">
          <mxGeometry width="50" height="50" relative="1" as="geometry">
            <mxPoint x="-39.999999999999915" y="549.4099999999999" as="sourcePoint"/>
            <mxPoint x="921.7999999999996" y="549.4099999999999" as="targetPoint"/>
          </mxGeometry>
        </mxCell>
        <mxCell id="4BJEDGzdUpcZ-naStXSg-82" value="" style="endArrow=none;html=1;exitX=-0.007;exitY=0.043;exitDx=0;exitDy=0;exitPerimeter=0;entryX=1.008;entryY=0.043;entryDx=0;entryDy=0;entryPerimeter=0;" parent="1" edge="1">
          <mxGeometry width="50" height="50" relative="1" as="geometry">
            <mxPoint x="-41.799999999999926" y="569.9999999999999" as="sourcePoint"/>
            <mxPoint x="919.9999999999995" y="569.9999999999999" as="targetPoint"/>
          </mxGeometry>
        </mxCell>
        <mxCell id="4BJEDGzdUpcZ-naStXSg-83" value="" style="endArrow=none;html=1;exitX=-0.007;exitY=0.043;exitDx=0;exitDy=0;exitPerimeter=0;entryX=1.008;entryY=0.043;entryDx=0;entryDy=0;entryPerimeter=0;" parent="1" edge="1">
          <mxGeometry width="50" height="50" relative="1" as="geometry">
            <mxPoint x="-41.799999999999926" y="589.9999999999999" as="sourcePoint"/>
            <mxPoint x="919.9999999999995" y="589.9999999999999" as="targetPoint"/>
          </mxGeometry>
        </mxCell>
        <mxCell id="4BJEDGzdUpcZ-naStXSg-84" value="" style="endArrow=none;html=1;exitX=-0.007;exitY=0.043;exitDx=0;exitDy=0;exitPerimeter=0;entryX=1.008;entryY=0.043;entryDx=0;entryDy=0;entryPerimeter=0;" parent="1" edge="1">
          <mxGeometry width="50" height="50" relative="1" as="geometry">
            <mxPoint x="-41.799999999999926" y="609.9999999999999" as="sourcePoint"/>
            <mxPoint x="919.9999999999995" y="609.9999999999999" as="targetPoint"/>
          </mxGeometry>
        </mxCell>
        <mxCell id="4BJEDGzdUpcZ-naStXSg-85" value="" style="endArrow=none;html=1;exitX=-0.007;exitY=0.043;exitDx=0;exitDy=0;exitPerimeter=0;entryX=1.008;entryY=0.043;entryDx=0;entryDy=0;entryPerimeter=0;" parent="1" edge="1">
          <mxGeometry width="50" height="50" relative="1" as="geometry">
            <mxPoint x="-41.799999999999926" y="209.9999999999999" as="sourcePoint"/>
            <mxPoint x="919.9999999999995" y="209.9999999999999" as="targetPoint"/>
          </mxGeometry>
        </mxCell>
        <mxCell id="4BJEDGzdUpcZ-naStXSg-86" value="" style="endArrow=none;html=1;exitX=-0.007;exitY=0.043;exitDx=0;exitDy=0;exitPerimeter=0;entryX=1.008;entryY=0.043;entryDx=0;entryDy=0;entryPerimeter=0;" parent="1" edge="1">
          <mxGeometry width="50" height="50" relative="1" as="geometry">
            <mxPoint x="-41.799999999999926" y="229.9999999999999" as="sourcePoint"/>
            <mxPoint x="919.9999999999995" y="229.9999999999999" as="targetPoint"/>
          </mxGeometry>
        </mxCell>
        <mxCell id="4BJEDGzdUpcZ-naStXSg-87" value="" style="endArrow=none;html=1;exitX=-0.007;exitY=0.043;exitDx=0;exitDy=0;exitPerimeter=0;entryX=1.008;entryY=0.043;entryDx=0;entryDy=0;entryPerimeter=0;" parent="1" edge="1">
          <mxGeometry width="50" height="50" relative="1" as="geometry">
            <mxPoint x="-41.799999999999926" y="189.9999999999999" as="sourcePoint"/>
            <mxPoint x="919.9999999999995" y="189.9999999999999" as="targetPoint"/>
          </mxGeometry>
        </mxCell>
        <mxCell id="4BJEDGzdUpcZ-naStXSg-90" value="" style="rounded=0;whiteSpace=wrap;html=1;fillColor=#dae8fc;strokeColor=#6c8ebf;" parent="1" vertex="1">
          <mxGeometry x="80" y="330" width="120" height="80" as="geometry"/>
        </mxCell>
        <mxCell id="4BJEDGzdUpcZ-naStXSg-91" value="" style="endArrow=none;html=1;exitX=-0.007;exitY=0.043;exitDx=0;exitDy=0;exitPerimeter=0;" parent="1" edge="1">
          <mxGeometry width="50" height="50" relative="1" as="geometry">
            <mxPoint x="-40.899999999999864" y="350" as="sourcePoint"/>
            <mxPoint x="80" y="350" as="targetPoint"/>
          </mxGeometry>
        </mxCell>
        <mxCell id="4BJEDGzdUpcZ-naStXSg-92" value="John Client&lt;br&gt;PDD&lt;br&gt;9:00&amp;nbsp; - 13:00" style="text;html=1;strokeColor=none;fillColor=none;align=center;verticalAlign=middle;whiteSpace=wrap;rounded=0;" parent="1" vertex="1">
          <mxGeometry x="90" y="340" width="100" height="70" as="geometry"/>
        </mxCell>
        <mxCell id="4BJEDGzdUpcZ-naStXSg-93" value="" style="rounded=0;whiteSpace=wrap;html=1;fillColor=#d5e8d4;strokeColor=#82b366;" parent="1" vertex="1">
          <mxGeometry x="200" y="460" width="120" height="60" as="geometry"/>
        </mxCell>
        <mxCell id="4BJEDGzdUpcZ-naStXSg-94" value="" style="endArrow=none;html=1;exitX=-0.007;exitY=0.043;exitDx=0;exitDy=0;exitPerimeter=0;entryX=1;entryY=0.705;entryDx=0;entryDy=0;entryPerimeter=0;" parent="1" target="4BJEDGzdUpcZ-naStXSg-3" edge="1">
          <mxGeometry width="50" height="50" relative="1" as="geometry">
            <mxPoint x="-41.799999999999955" y="490" as="sourcePoint"/>
            <mxPoint x="919.9999999999995" y="490" as="targetPoint"/>
          </mxGeometry>
        </mxCell>
        <mxCell id="4BJEDGzdUpcZ-naStXSg-95" value="Jimothy Kid&lt;br&gt;Child&lt;br&gt;15:30 - 18:30" style="text;html=1;strokeColor=none;fillColor=none;align=center;verticalAlign=middle;whiteSpace=wrap;rounded=0;" parent="1" vertex="1">
          <mxGeometry x="210" y="460" width="100" height="60" as="geometry"/>
        </mxCell>
      </root>
    </mxGraphModel>
  </diagram>
  <diagram id="ArsJolkUctHhVl-owlGr" name="Shift Details">
    <mxGraphModel dx="1038" dy="580" grid="1" gridSize="10" guides="1" tooltips="1" connect="1" arrows="1" fold="1" page="1" pageScale="1" pageWidth="850" pageHeight="1100" math="0" shadow="0">
      <root>
        <mxCell id="WG6YomQxX-IzqUmFiDWZ-0"/>
        <mxCell id="WG6YomQxX-IzqUmFiDWZ-1" parent="WG6YomQxX-IzqUmFiDWZ-0"/>
        <mxCell id="N2LBf0-fSw91wIHXDt_4-1" value="" style="rounded=0;whiteSpace=wrap;html=1;" parent="WG6YomQxX-IzqUmFiDWZ-1" vertex="1">
          <mxGeometry x="100" y="40" width="320" height="370" as="geometry"/>
        </mxCell>
        <mxCell id="WG6YomQxX-IzqUmFiDWZ-2" value="&lt;h1&gt;Shift Information:&lt;/h1&gt;&lt;p&gt;&lt;b&gt;Date:&lt;/b&gt; Feb. 2, 2020&lt;/p&gt;&lt;p&gt;&lt;b&gt;Time:&lt;/b&gt; 9:00 - 13:00&lt;/p&gt;&lt;p&gt;&lt;b&gt;Client:&lt;/b&gt; John Client&lt;/p&gt;&lt;p&gt;&lt;b&gt;Department:&lt;/b&gt; PDD&lt;/p&gt;&lt;p&gt;&lt;b&gt;Client Address:&lt;/b&gt;&lt;span&gt; 123 Example St, Lethbridge&lt;/span&gt;&lt;br&gt;&lt;/p&gt;&lt;p&gt;&lt;b&gt;Client Phone:&lt;/b&gt; 403-123-4567&lt;/p&gt;&lt;p&gt;&lt;b&gt;Shift Notes: &lt;/b&gt;He wants to go to the park.&lt;/p&gt;&lt;p&gt;&lt;b&gt;Client Notes:&lt;/b&gt; He is a swell guy.&lt;/p&gt;&lt;p&gt;&lt;br&gt;&lt;/p&gt;" style="text;html=1;strokeColor=none;fillColor=none;spacing=5;spacingTop=-20;whiteSpace=wrap;overflow=hidden;rounded=0;" parent="WG6YomQxX-IzqUmFiDWZ-1" vertex="1">
          <mxGeometry x="120" y="60" width="250" height="370" as="geometry"/>
        </mxCell>
        <mxCell id="N2LBf0-fSw91wIHXDt_4-2" value="&lt;span style=&quot;white-space: normal&quot;&gt;Back to Calendar&lt;/span&gt;" style="rounded=1;whiteSpace=wrap;html=1;" parent="WG6YomQxX-IzqUmFiDWZ-1" vertex="1">
          <mxGeometry x="196.25" y="340" width="97.5" height="30" as="geometry"/>
        </mxCell>
      </root>
    </mxGraphModel>
  </diagram>
</mxfile>
